<svg width="305" height="86" viewBox="0 0 305 86" fill="none" xmlns="http://www.w3.org/2000/svg">
<g id="logo size">
<g id="Property 1=desktop">
<path id="Union" d="M212.842 62.6914C214.987 62.6914 216.87 63.18 218.49 64.1582C218.654 64.2555 218.808 64.3562 218.955 64.4561L219.867 62.8174H224.476V78.1328C224.476 80.1915 224.026 81.7893 223.127 82.9258C222.237 84.0716 221.164 84.8682 219.909 85.3154C218.663 85.7719 217.052 86 215.075 86C212.902 85.9999 210.973 85.548 209.287 84.6445C207.601 83.7409 206.636 82.1898 206.393 79.9912H212.574C212.621 80.4382 212.766 80.8201 213.01 81.1367C213.253 81.4628 213.572 81.6918 213.966 81.8223C214.368 81.9619 214.809 82.0312 215.286 82.0312C216.12 82.0312 216.799 81.8776 217.323 81.5703C217.848 81.2629 218.11 80.3407 218.11 78.8037V78.3428C216.604 79.105 214.872 79.4882 212.912 79.4883C210.43 79.4883 208.655 78.696 207.587 77.1123C206.528 75.5286 205.999 73.5116 205.999 71.0615C205.999 68.6115 206.519 66.6041 207.559 65.0391C208.598 63.474 210.36 62.6914 212.842 62.6914ZM31.3174 20.1533C48.613 20.1536 62.6336 34.4661 62.6338 52.1211C62.6337 69.7761 48.613 84.0886 31.3174 84.0889C14.0216 84.0889 0.00012018 69.7762 0 52.1211C0.000171937 34.466 14.0216 20.1533 31.3174 20.1533ZM151.437 62.8174H156.228V67.1211H151.437V73.5488C151.437 74.3403 151.61 74.8529 151.956 75.0859C152.312 75.3188 152.8 75.4355 153.418 75.4355C154.12 75.4355 154.809 75.3101 155.483 75.0586V79.1943C154.135 79.4831 152.72 79.6279 151.24 79.6279C149.545 79.6279 148.092 79.2831 146.884 78.5938C145.685 77.895 145.086 76.6649 145.086 74.9043V67.1211H141.376V62.8174H145.086V59.002H151.437V62.8174ZM167.114 62.6494C170.776 62.6495 173.258 63.441 174.561 65.0244C175.863 66.6081 176.514 68.6444 176.514 71.1318C176.514 71.821 176.472 72.431 176.388 72.9619H163.95C164.095 73.8676 164.367 74.4781 164.768 74.793C165.404 75.2866 166.229 75.5332 167.24 75.5332C167.849 75.5332 168.322 75.4779 168.659 75.3662C168.996 75.2544 169.277 75.0718 169.502 74.8203C169.727 74.5688 169.956 74.238 170.19 73.8281L175.854 75.4639C175.61 76.5072 175.094 77.3083 174.308 77.8672C173.521 78.4261 172.617 78.8499 171.596 79.1387C170.584 79.4274 169.132 79.5723 167.24 79.5723C163.615 79.5723 161.119 78.8081 159.751 77.2803C158.383 75.7432 157.7 73.6936 157.7 71.1318C157.7 68.5699 158.379 66.5152 159.737 64.9688C161.096 63.4224 163.555 62.6494 167.114 62.6494ZM236.022 62.6494C239.685 62.6494 242.167 63.441 243.469 65.0244C244.771 66.6081 245.422 68.6444 245.422 71.1318C245.422 71.821 245.38 72.431 245.296 72.9619H232.859C233.004 73.8676 233.276 74.4781 233.676 74.793C234.313 75.2866 235.137 75.5332 236.148 75.5332C236.757 75.5332 237.23 75.4779 237.567 75.3662C237.905 75.2544 238.186 75.0718 238.411 74.8203C238.636 74.5688 238.866 74.2378 239.1 73.8281L244.762 75.4639C244.518 76.5071 244.003 77.3083 243.216 77.8672C242.429 78.426 241.526 78.8499 240.505 79.1387C239.493 79.4275 238.041 79.5723 236.148 79.5723C232.524 79.5722 230.028 78.8079 228.66 77.2803C227.293 75.7432 226.608 73.6936 226.608 71.1318C226.608 68.5699 227.287 66.5152 228.646 64.9688C230.004 63.4223 232.463 62.6494 236.022 62.6494ZM276.206 62.6631C279.325 62.6631 281.457 63.2597 282.6 64.4521C283.752 65.6444 284.444 66.8414 284.679 68.043L279.059 70.0273C278.965 68.863 278.661 68.0662 278.146 67.6377C277.64 67.1999 276.993 66.9814 276.206 66.9814C275.438 66.9815 274.773 67.228 274.211 67.7217C273.649 68.2061 273.368 69.3521 273.368 71.1592C273.368 72.9292 273.649 74.0619 274.211 74.5557C274.773 75.04 275.438 75.2822 276.206 75.2822C276.993 75.2822 277.64 75.0672 278.146 74.6387C278.661 74.2008 278.965 73.418 279.059 72.291L284.679 74.3594C284.445 75.5145 283.752 76.6744 282.6 77.8389C281.457 78.9941 279.325 79.5723 276.206 79.5723C272.619 79.5722 270.169 78.8362 268.857 77.3643C267.555 75.883 266.905 73.8142 266.905 71.1592C266.905 68.5043 267.555 66.4266 268.857 64.9268C270.169 63.4176 272.619 62.6631 276.206 62.6631ZM295.601 62.6494C299.263 62.6495 301.745 63.441 303.047 65.0244C304.349 66.6081 305 68.6444 305 71.1318C305 71.821 304.958 72.431 304.874 72.9619H292.437C292.582 73.8676 292.854 74.4781 293.254 74.793C293.891 75.2866 294.715 75.5332 295.727 75.5332C296.335 75.5332 296.808 75.4779 297.146 75.3662C297.483 75.2544 297.764 75.0718 297.989 74.8203C298.214 74.5688 298.444 74.2378 298.678 73.8281L304.34 75.4639C304.096 76.5072 303.581 77.3083 302.794 77.8672C302.007 78.4261 301.103 78.8499 300.082 79.1387C299.07 79.4274 297.619 79.5723 295.727 79.5723C292.102 79.5723 289.605 78.8081 288.237 77.2803C286.87 75.7432 286.187 73.6936 286.187 71.1318C286.187 68.5699 286.865 66.5152 288.224 64.9688C289.582 63.4224 292.041 62.6494 295.601 62.6494ZM119.385 79.3906H112.992V60.5254H119.385V79.3906ZM133.72 62.6914C136.043 62.6914 137.626 63.483 138.469 65.0664C139.321 66.6408 139.748 68.649 139.748 71.0898V79.3906H133.411V71.2012C133.411 69.4313 133.237 68.2897 132.891 67.7773C132.553 67.2559 132.019 66.9951 131.289 66.9951C130.474 66.9951 129.776 67.3637 129.195 68.0996C128.9 68.4688 128.68 68.9053 128.535 69.4092V79.3906H122.198V62.8174H127.074L128.124 64.5859C129.608 63.3231 131.473 62.6914 133.72 62.6914ZM185.158 79.3906H178.808V57.4512H185.158V79.3906ZM194.489 79.3906H188.138V57.4512H194.489V79.3906ZM203.764 79.3906H197.398V62.8174H203.764V79.3906ZM258.858 62.6914C261.181 62.6914 262.764 63.4829 263.607 65.0664C264.46 66.6408 264.886 68.649 264.886 71.0898V79.3906H258.549V71.2012C258.549 69.4313 258.376 68.2897 258.029 67.7773C257.692 67.2559 257.158 66.9952 256.428 66.9951C255.613 66.9951 254.915 67.3636 254.334 68.0996C254.039 68.4688 253.819 68.9053 253.674 69.4092V79.3906H247.337V62.8174H252.212L253.263 64.5859C254.746 63.3231 256.611 62.6914 258.858 62.6914ZM215.09 66.9814C214.2 66.9814 213.53 67.2376 213.08 67.75C212.631 68.2532 212.406 69.3667 212.406 71.0898C212.406 72.8318 212.63 73.9593 213.08 74.4717C213.53 74.9747 214.2 75.2256 215.09 75.2256C215.895 75.2255 216.598 74.9694 217.197 74.457C217.806 73.9447 218.11 73.2463 218.11 72.3613V69.8184L218.097 69.501C218.03 68.7818 217.73 68.1982 217.197 67.75C216.598 67.2376 215.895 66.9815 215.09 66.9814ZM31.3174 34.9961C22.1979 34.9961 14.8049 42.6631 14.8047 52.1211C14.8048 61.5792 22.1978 69.2471 31.3174 69.2471C40.4368 69.2468 47.829 61.579 47.8291 52.1211C47.8289 42.6632 40.4367 34.9963 31.3174 34.9961ZM167.128 66.6738C166.154 66.6738 165.357 66.9397 164.739 67.4707C164.369 67.7935 164.112 68.3709 163.967 69.2031H170.208C170.133 68.3562 169.867 67.7409 169.404 67.3584C168.861 66.9019 168.102 66.6738 167.128 66.6738ZM236.036 66.6738C235.062 66.6739 234.266 66.9397 233.647 67.4707C233.278 67.7935 233.021 68.3711 232.876 69.2031H239.117C239.042 68.3561 238.776 67.7409 238.312 67.3584C237.769 66.902 237.01 66.6738 236.036 66.6738ZM295.614 66.6738C294.64 66.6738 293.844 66.9397 293.226 67.4707C292.856 67.7935 292.598 68.3709 292.453 69.2031H298.694C298.619 68.3562 298.354 67.7409 297.891 67.3584C297.347 66.9019 296.588 66.6738 295.614 66.6738ZM69.5723 47.3496C70.9262 47.3097 72.2473 48.1127 72.5469 49.4336L75.4688 62.3232C75.9011 64.231 74.7085 66.1507 72.7646 66.3711C71.8983 66.4693 71.0209 66.5315 70.1338 66.5576C69.2465 66.5838 68.3659 66.5734 67.4951 66.5264C65.5418 66.4207 64.2392 64.5744 64.5596 62.6445L66.7256 49.6045C66.9478 48.2687 68.2187 47.3897 69.5723 47.3496ZM203.764 61.4199H197.398V57.4512H203.764V61.4199ZM78.2119 43.4482C79.1468 42.4518 80.6622 42.0791 81.8164 42.8096L92.8916 49.8193C94.5387 50.8623 95.0508 53.0535 93.8438 54.585C92.7477 55.9748 91.5374 57.2711 90.2275 58.458C88.7669 59.7815 86.5206 59.3939 85.3828 57.7852L77.79 47.0498C77.0098 45.9463 77.2871 44.4343 78.2119 43.4482ZM211.379 33.1475C215.041 33.1475 217.523 33.9399 218.825 35.5234C220.127 37.1071 220.778 39.1426 220.778 41.6299C220.778 42.3193 220.737 42.9299 220.652 43.4609H208.216C208.361 44.3661 208.632 44.9762 209.032 45.291C209.669 45.7847 210.493 46.0322 211.505 46.0322C212.114 46.0322 212.588 45.9761 212.925 45.8643C213.262 45.7525 213.543 45.5708 213.768 45.3193C213.992 45.0678 214.222 44.737 214.456 44.3271L220.118 45.9619C219.875 47.0053 219.359 47.8063 218.572 48.3652C217.786 48.9241 216.882 49.3489 215.861 49.6377C214.85 49.9265 213.397 50.0703 211.505 50.0703C207.88 50.0703 205.384 49.3061 204.017 47.7783C202.649 46.2412 201.965 44.1918 201.965 41.6299C201.965 39.0682 202.644 37.0142 204.002 35.4678C205.36 33.9213 207.819 33.1475 211.379 33.1475ZM161.438 33.1895C163.855 33.1895 165.878 33.4791 167.508 34.0566C169.138 34.6342 170.21 35.6492 170.726 37.1025L165.189 39.1289C164.937 38.6072 164.454 38.1598 163.742 37.7871C163.04 37.4052 162.243 37.2139 161.354 37.2139C160.548 37.2139 159.958 37.3025 159.583 37.4795C159.208 37.6565 159.021 37.9224 159.021 38.2764C159.021 38.7514 159.485 39.0314 160.412 39.1152C161.339 39.1991 162.534 39.3201 163.995 39.4785C166.009 39.6742 167.686 40.1163 169.025 40.8057C170.365 41.4951 171.034 42.6926 171.034 44.3975C171.034 46.512 170.261 47.9791 168.716 48.7988C167.17 49.6185 165.006 50.0283 162.225 50.0283C159.864 50.0283 157.822 49.7256 156.099 49.1201C154.375 48.5146 153.228 47.5039 152.656 46.0879L158.192 44.0342C158.445 44.5929 158.932 45.0538 159.653 45.417C160.384 45.7803 161.274 45.9619 162.323 45.9619C163.045 45.9619 163.635 45.8733 164.094 45.6963C164.553 45.5193 164.782 45.249 164.782 44.8857C164.782 44.4202 164.299 44.1497 163.335 44.0752C162.37 44.0007 161.119 43.8796 159.583 43.7119C157.504 43.4976 155.85 42.9809 154.623 42.1611C153.396 41.3413 152.783 40.0506 152.783 38.29C152.783 36.4736 153.593 35.1698 155.214 34.3779C156.844 33.5861 158.919 33.1895 161.438 33.1895ZM231.334 33.1895C233.751 33.1895 235.774 33.479 237.404 34.0566C239.034 34.6342 240.107 35.6493 240.622 37.1025L235.086 39.1289C234.833 38.6072 234.351 38.1598 233.639 37.7871C232.936 37.4052 232.14 37.2139 231.25 37.2139C230.445 37.2139 229.854 37.3025 229.479 37.4795C229.105 37.6565 228.918 37.9224 228.918 38.2764C228.918 38.7515 229.381 39.0314 230.309 39.1152C231.236 39.1991 232.43 39.3201 233.892 39.4785C235.906 39.6742 237.582 40.1163 238.922 40.8057C240.261 41.4951 240.931 42.6926 240.931 44.3975C240.931 46.512 240.158 47.9791 238.612 48.7988C237.067 49.6186 234.903 50.0283 232.121 50.0283C229.761 50.0283 227.719 49.7256 225.995 49.1201C224.272 48.5146 223.124 47.5039 222.553 46.0879L228.089 44.0342C228.342 44.5929 228.829 45.0538 229.55 45.417C230.28 45.7803 231.171 45.9619 232.22 45.9619C232.941 45.9619 233.531 45.8733 233.99 45.6963C234.449 45.5193 234.679 45.249 234.679 44.8857C234.678 44.4202 234.196 44.1497 233.231 44.0752C232.267 44.0007 231.016 43.8796 229.479 43.7119C227.4 43.4976 225.747 42.9809 224.52 42.1611C223.293 41.3413 222.68 40.0507 222.68 38.29C222.68 36.4736 223.49 35.1698 225.11 34.3779C226.74 33.5862 228.815 33.1895 231.334 33.1895ZM251.505 33.1895C253.921 33.1895 255.944 33.4791 257.574 34.0566C259.204 34.6342 260.277 35.6493 260.792 37.1025L255.256 39.1289C255.003 38.6072 254.52 38.1597 253.809 37.7871C253.106 37.4054 252.31 37.2139 251.421 37.2139C250.616 37.2139 250.025 37.3026 249.65 37.4795C249.276 37.6565 249.088 37.9224 249.088 38.2764C249.088 38.7515 249.552 39.0314 250.479 39.1152C251.407 39.1991 252.601 39.3202 254.062 39.4785C256.075 39.6741 257.752 40.1163 259.092 40.8057C260.431 41.4951 261.102 42.6926 261.102 44.3975C261.101 46.5119 260.329 47.979 258.783 48.7988C257.238 49.6186 255.074 50.0283 252.292 50.0283C249.931 50.0283 247.889 49.7257 246.165 49.1201C244.442 48.5146 243.294 47.5038 242.723 46.0879L248.259 44.0342C248.512 44.593 249 45.0537 249.721 45.417C250.451 45.7802 251.341 45.9619 252.39 45.9619C253.111 45.9619 253.701 45.8733 254.16 45.6963C254.619 45.5193 254.849 45.2491 254.849 44.8857C254.848 44.4202 254.366 44.1497 253.401 44.0752C252.437 44.0007 251.186 43.8796 249.65 43.7119C247.571 43.4977 245.918 42.9809 244.69 42.1611C243.463 41.3413 242.85 40.0508 242.85 38.29C242.85 36.4736 243.66 35.1698 245.28 34.3779C246.91 33.5861 248.985 33.1895 251.505 33.1895ZM138.96 41.4902C138.96 43.2696 139.119 44.4207 139.438 44.9424C139.756 45.4547 140.281 45.7109 141.012 45.7109C141.826 45.7109 142.533 45.3659 143.133 44.6768C143.636 44.1069 143.931 43.3489 144.019 42.4033V33.3154H150.355V49.8887H145.508L144.45 48.1025C143.031 49.376 141.099 50.0146 138.651 50.0146C136.281 50.0146 134.684 49.2602 133.859 47.751C133.035 46.2325 132.623 44.2575 132.623 41.8262V33.3154H138.96V41.4902ZM124.317 31.0234C127.024 31.0235 128.686 31.5316 129.305 32.5469C129.923 33.553 130.232 34.5874 130.232 35.6494C130.232 36.6927 129.993 37.6474 129.516 38.5137C129.038 39.3708 128.171 39.8182 126.916 39.8555C128.171 39.9207 129.122 40.3865 129.769 41.2529C130.415 42.11 130.738 43.1768 130.738 44.4531C130.738 45.9436 130.438 47.2246 129.839 48.2959C129.249 49.3578 127.553 49.8886 124.753 49.8887H112.402V31.0234H124.317ZM179.642 49.8887H173.276V33.3154H179.642V49.8887ZM193.792 33.1895C196.115 33.1895 197.698 33.9817 198.541 35.5654C199.393 37.1398 199.819 39.1473 199.819 41.5879V49.8887H193.482V41.7002C193.482 39.9302 193.309 38.7888 192.963 38.2764C192.626 37.7547 192.092 37.4942 191.361 37.4941C190.546 37.4941 189.848 37.8617 189.268 38.5977C188.972 38.967 188.753 39.404 188.607 39.9082V49.8887H182.271V33.3154H187.146L188.196 35.085C189.68 33.822 191.545 33.1895 193.792 33.1895ZM118.823 45.585H123.137C123.689 45.585 124.027 45.4593 124.148 45.208C124.27 44.9472 124.331 44.476 124.331 43.7959C124.331 43.116 124.27 42.6218 124.148 42.3145C124.027 42.0073 123.685 41.8536 123.123 41.8535H118.823V45.585ZM211.393 37.1729C210.419 37.1729 209.622 37.4378 209.004 37.9688C208.634 38.2916 208.378 38.8697 208.232 39.7021H214.474C214.399 38.8549 214.132 38.24 213.669 37.8574C213.126 37.4009 212.367 37.1729 211.393 37.1729ZM96.4014 28.5684C98.3161 28.1277 100.245 29.326 100.464 31.2783C100.562 32.1537 100.623 33.0411 100.649 33.9375C100.676 34.8338 100.665 35.723 100.618 36.6025C100.514 38.5644 98.6587 39.8741 96.7217 39.5469L83.8691 37.376C82.521 37.1481 81.6348 35.8658 81.5947 34.499C81.5549 33.1321 82.3655 31.8 83.6982 31.4932L96.4014 28.5684ZM118.823 38.0391H122.701C123.169 38.0391 123.464 37.9177 123.586 37.6758C123.708 37.4243 123.769 37.0653 123.769 36.5996C123.769 36.1338 123.708 35.8031 123.586 35.6074C123.464 35.4025 123.169 35.2998 122.701 35.2998H118.823V38.0391ZM179.642 31.918H173.276V27.9492H179.642V31.918ZM48.1895 11.2695C49.6501 9.94612 51.8964 10.3336 53.0342 11.9424L60.627 22.6777C61.4072 23.7812 61.1299 25.2933 60.2051 26.2793C59.2702 27.2757 57.7548 27.6485 56.6006 26.918L45.5254 19.9082C43.8782 18.8653 43.3661 16.6741 44.5732 15.1426C45.6693 13.7528 46.8796 12.4564 48.1895 11.2695ZM84.0176 11.0293C85.0596 9.35624 87.2801 8.83728 88.8154 10.0723C90.1922 11.1799 91.4762 12.4018 92.6514 13.7246C93.9465 15.1825 93.5626 17.4019 91.9785 18.54L81.3311 26.1895C80.2216 26.9864 78.6876 26.704 77.6963 25.7646C76.7153 24.8347 76.3506 23.3411 77.0654 22.1934L84.0176 11.0293ZM68.2832 3.16895C69.1705 3.1428 70.051 3.15412 70.9219 3.20117C72.8751 3.30692 74.1778 5.15319 73.8574 7.08301L71.6914 20.123C71.4692 21.4588 70.1982 22.3378 68.8447 22.3779C67.4908 22.4178 66.1696 21.6148 65.8701 20.2939L62.9482 7.4043C62.5158 5.49652 63.7084 3.57686 65.6523 3.35645C66.5187 3.25823 67.3961 3.1951 68.2832 3.16895ZM212.469 3.81543H217.26V8.11914H212.469V14.5469C212.469 15.3384 212.642 15.8509 212.988 16.084C213.344 16.3169 213.832 16.4336 214.45 16.4336C215.153 16.4336 215.841 16.3082 216.516 16.0566V20.1924C215.167 20.4812 213.752 20.626 212.272 20.626C210.577 20.626 209.124 20.2812 207.916 19.5918C206.717 18.8931 206.118 17.6629 206.118 15.9023V8.11914H202.408V3.81543H206.118V0H212.469V3.81543ZM171.586 3.64746C173.478 3.64749 175.108 3.84749 176.476 4.24805C177.852 4.64861 178.91 5.32877 179.65 6.28809C180.39 7.23833 180.761 8.5526 180.761 10.2295V20.3887H175.491L174.93 18.6699C174.799 18.9214 174.569 19.1637 174.241 19.3965C173.913 19.6294 173.501 19.8391 173.005 20.0254C172.518 20.2024 171.969 20.3419 171.36 20.4443C170.752 20.5468 170.105 20.5976 169.422 20.5977C168.729 20.5977 168.035 20.5609 167.342 20.4863C166.658 20.4118 166.012 20.2723 165.403 20.0674C164.794 19.8531 164.255 19.5548 163.787 19.1729C163.319 18.7816 162.949 18.2735 162.678 17.6494C162.415 17.0159 162.284 16.2474 162.284 15.3438C162.284 14.4774 162.415 13.7456 162.678 13.1494C162.94 12.5534 163.301 12.0689 163.76 11.6963C164.219 11.3146 164.747 11.0213 165.347 10.8164C165.946 10.6115 166.579 10.471 167.244 10.3965C167.918 10.3127 168.598 10.2715 169.281 10.2715H174.382V9.89355C174.382 9.33468 174.255 8.91084 174.002 8.62207C173.749 8.32403 173.412 8.11861 172.99 8.00684C172.569 7.89511 172.11 7.83984 171.613 7.83984C171.164 7.83987 170.738 7.89508 170.335 8.00684C169.942 8.1186 169.6 8.31001 169.31 8.58008C169.019 8.84093 168.813 9.20945 168.691 9.68457L162.495 7.92383C162.682 7.15991 163.038 6.50713 163.562 5.9668C164.087 5.4265 164.748 4.98869 165.544 4.65332C166.34 4.30868 167.249 4.0568 168.27 3.89844C169.3 3.73075 170.406 3.64746 171.586 3.64746ZM121.507 1.35547C125.197 1.35549 127.694 2.01698 128.996 3.33984C130.298 4.66268 130.948 6.23762 130.948 8.06348H124.527C124.527 6.92691 124.204 6.23734 123.558 5.99512C122.921 5.75299 122.214 5.63185 121.437 5.63184C120.556 5.63184 119.811 5.72917 119.202 5.9248C118.593 6.11113 118.289 6.44723 118.289 6.93164C118.289 7.61147 118.767 8.03547 119.723 8.20312C120.687 8.3708 121.947 8.58925 123.502 8.85938C126.481 9.39039 128.471 9.98264 129.474 10.6348C130.476 11.2869 130.976 12.4137 130.977 14.0156C130.977 15.8043 130.349 17.3326 129.094 18.5996C127.848 19.8665 125.361 20.5 121.633 20.5C117.811 20.5 115.263 19.8622 113.989 18.5859C112.715 17.3004 112.079 15.6885 112.079 13.751H118.5C118.5 14.9059 118.804 15.6088 119.413 15.8604C120.022 16.1026 120.748 16.2236 121.591 16.2236C122.424 16.2236 123.146 16.1403 123.755 15.9727C124.364 15.7957 124.668 15.4463 124.668 14.9248C124.668 14.338 124.204 13.951 123.277 13.7646C122.35 13.5783 121.095 13.3643 119.512 13.1221C116.636 12.5725 114.679 11.9389 113.639 11.2217C112.608 10.5043 112.093 9.32081 112.093 7.67188C112.093 5.94852 112.734 4.4675 114.018 3.22852C115.31 1.98016 117.807 1.35547 121.507 1.35547ZM154.212 3.68945C156.628 3.6895 158.212 4.4484 158.961 5.9668C159.72 7.48529 160.099 9.19962 160.099 11.1094V20.3887H153.762V11.6543C153.762 10.2104 153.63 9.24178 153.368 8.74805C153.106 8.24501 152.67 7.99316 152.062 7.99316C151.387 7.99329 150.83 8.29159 150.39 8.8877C150.065 9.33685 149.863 10.0108 149.783 10.9092C149.784 10.9757 149.786 11.0424 149.786 11.1094V20.3887H143.449V11.6543C143.449 10.2107 143.304 9.24187 143.014 8.74805C142.733 8.24503 142.287 7.99322 141.679 7.99316C141.004 7.99316 140.447 8.29153 140.007 8.8877C139.7 9.31207 139.504 9.93716 139.416 10.7627V20.3887H133.065V3.81543H137.955L139.007 5.45508C140.437 4.27798 142.044 3.68948 143.828 3.68945C146.245 3.68945 147.842 4.44849 148.619 5.9668C148.646 6.01969 148.672 6.07358 148.698 6.12695C148.719 6.1063 148.739 6.08512 148.76 6.06445C150.343 4.48075 152.161 3.68945 154.212 3.68945ZM194.475 3.6748C196.938 3.6748 198.583 4.38812 199.407 5.81348C200.231 7.23884 200.644 9.42352 200.644 12.3672H194.307C194.307 10.4393 194.1 9.22839 193.688 8.73438C193.276 8.23131 192.728 7.97949 192.044 7.97949C191.248 7.97958 190.602 8.27271 190.105 8.85938C189.709 9.33728 189.476 9.87446 189.402 10.4697V20.3887H183.066V3.81543H187.941L188.893 5.49902C188.945 5.45463 188.997 5.40977 189.052 5.36621C190.457 4.2391 192.264 3.67488 194.475 3.6748ZM170.784 13.6943C170.485 13.6944 170.204 13.7137 169.941 13.751C169.689 13.7789 169.469 13.8395 169.281 13.9326C169.103 14.0258 168.962 14.1697 168.859 14.3652C168.756 14.5609 168.705 14.8267 168.705 15.1621C168.705 15.4974 168.766 15.7634 168.888 15.959C169.019 16.1544 169.188 16.3029 169.394 16.4053C169.609 16.5077 169.843 16.578 170.096 16.6152C170.358 16.6525 170.621 16.6709 170.883 16.6709C171.201 16.6709 171.548 16.6428 171.923 16.5869C172.307 16.531 172.672 16.4477 173.019 16.3359C173.375 16.2241 173.674 16.0793 173.918 15.9023C174.161 15.7254 174.311 15.5112 174.367 15.2598L174.522 13.6943H170.784Z" fill="white"/>
</g>
</g>
</svg>
